<svg width="71" height="71" viewBox="0 0 71 71" fill="none" xmlns="http://www.w3.org/2000/svg">
<path fill-rule="evenodd" clip-rule="evenodd" d="M0.902344 56.0323C17.0574 50.9265 20.5676 54.4363 15.4615 70.5906C24.8961 54.4363 46.9089 54.4363 56.3434 70.5906C51.2408 54.4363 54.7513 50.9265 70.9024 56.0323C54.7513 46.5981 54.7513 24.5867 70.9024 15.1527C54.7513 20.2547 51.2408 16.7447 56.3434 0.590576C46.9089 16.7447 24.8961 16.7447 15.4615 0.590576C20.5676 16.7447 17.0574 20.2547 0.902344 15.1527C17.0574 24.5867 17.0574 46.5981 0.902344 56.0323ZM35.9024 48.5406C43.0546 48.5406 48.8524 42.7428 48.8524 35.5906C48.8524 28.4385 43.0546 22.6406 35.9024 22.6406C28.7503 22.6406 22.9524 28.4385 22.9524 35.5906C22.9524 42.7428 28.7503 48.5406 35.9024 48.5406Z" fill="black"/>
</svg>
