<svg width="71" height="71" viewBox="0 0 71 71" fill="none" xmlns="http://www.w3.org/2000/svg">
<path fill-rule="evenodd" clip-rule="evenodd" d="M0.902588 56.0323C17.0576 50.9265 20.5678 54.4363 15.4617 70.5906C24.8963 54.4363 46.9091 54.4363 56.3436 70.5906C51.241 54.4363 54.7515 50.9265 70.9026 56.0323C54.7515 46.5981 54.7515 24.5867 70.9026 15.1527C54.7515 20.2547 51.241 16.7447 56.3436 0.590576C46.9091 16.7447 24.8963 16.7447 15.4617 0.590576C20.5678 16.7447 17.0576 20.2547 0.902588 15.1527C17.0576 24.5867 17.0576 46.5981 0.902588 56.0323ZM35.9026 48.5406C43.0548 48.5406 48.8526 42.7428 48.8526 35.5906C48.8526 28.4385 43.0548 22.6406 35.9026 22.6406C28.7505 22.6406 22.9526 28.4385 22.9526 35.5906C22.9526 42.7428 28.7505 48.5406 35.9026 48.5406Z" fill="#FE330A"/>
</svg>
