<svg width="71" height="71" viewBox="0 0 71 71" fill="none" xmlns="http://www.w3.org/2000/svg">
<path fill-rule="evenodd" clip-rule="evenodd" d="M21.4325 52.3148C20.9729 51.3212 20.1721 50.5204 19.1783 50.0605C11.4433 46.4829 5.32427 41.3236 2.05806 38.2296C0.517427 36.7702 0.517434 34.411 2.05806 32.9515C5.32427 29.8574 11.4433 24.6982 19.1783 21.1206C20.1721 20.6609 20.9729 19.8601 21.4325 18.8663C25.0102 11.1313 30.1694 5.01226 33.2635 1.74605C34.723 0.205417 37.0822 0.205421 38.5416 1.74605C41.6356 5.01226 46.7949 11.1313 50.3725 18.8663C50.8324 19.8601 51.6332 20.6609 52.6268 21.1205C60.362 24.6982 66.481 29.8574 69.7471 32.9515C71.2878 34.411 71.2878 36.7702 69.7471 38.2296C66.481 41.3236 60.362 46.4829 52.6268 50.0605C51.6332 50.5204 50.8324 51.3212 50.3725 52.3148C46.7949 60.05 41.6356 66.169 38.5416 69.4351C37.0822 70.9758 34.723 70.9758 33.2635 69.4351C30.1694 66.169 25.0102 60.05 21.4325 52.3148ZM35.9027 48.4561C43.0079 48.4561 48.7681 42.6959 48.7681 35.5907C48.7681 28.4852 43.0079 22.7251 35.9027 22.7251C28.7972 22.7251 23.0372 28.4852 23.0372 35.5907C23.0372 42.6959 28.7972 48.4561 35.9027 48.4561Z" fill="black"/>
</svg>
