<svg width="71" height="71" viewBox="0 0 71 71" fill="none" xmlns="http://www.w3.org/2000/svg">
<path fill-rule="evenodd" clip-rule="evenodd" d="M21.4323 52.3148C20.9727 51.3212 20.1719 50.5204 19.1781 50.0605C11.4431 46.4829 5.32403 41.3236 2.05782 38.2296C0.517183 36.7702 0.51719 34.411 2.05782 32.9515C5.32403 29.8574 11.4431 24.6982 19.1781 21.1206C20.1719 20.6609 20.9727 19.8601 21.4323 18.8663C25.01 11.1313 30.1692 5.01226 33.2633 1.74605C34.7228 0.205416 37.082 0.20542 38.5414 1.74605C41.6354 5.01226 46.7947 11.1313 50.3723 18.8663C50.8322 19.8601 51.633 20.6609 52.6266 21.1205C60.3618 24.6982 66.4808 29.8574 69.7469 32.9515C71.2876 34.411 71.2876 36.7702 69.7469 38.2296C66.4808 41.3236 60.3618 46.4829 52.6266 50.0605C51.633 50.5204 50.8322 51.3212 50.3723 52.3148C46.7947 60.05 41.6354 66.169 38.5414 69.4351C37.082 70.9758 34.7228 70.9758 33.2633 69.4351C30.1692 66.169 25.01 60.05 21.4323 52.3148ZM35.9025 48.4561C43.0077 48.4561 48.7679 42.6959 48.7679 35.5907C48.7679 28.4852 43.0077 22.7251 35.9025 22.7251C28.797 22.7251 23.037 28.4852 23.037 35.5907C23.037 42.6959 28.797 48.4561 35.9025 48.4561Z" fill="#FE330A"/>
</svg>
