<svg width="93" height="93" viewBox="0 0 93 93" fill="none" xmlns="http://www.w3.org/2000/svg">
<path d="M25.2736 9.83967C20.8662 10.5652 17.6861 11.9159 15.2046 14.4244C9.83621 19.8543 9.83621 28.5953 9.83621 46.0774C9.83621 63.5596 9.83621 72.3006 15.2046 77.7343C20.5729 83.1681 29.214 83.1642 46.5 83.1642C63.7822 83.1642 72.4271 83.1642 77.7954 77.7343C83.1638 72.3045 83.1638 63.5596 83.1638 46.0774C83.1638 28.5953 83.1638 19.8504 77.7954 14.4205C75.3139 11.9121 72.1338 10.5613 67.7264 9.83582" stroke="#FE671E" stroke-width="5" stroke-linecap="round" stroke-linejoin="round"/>
<path d="M36.8516 19.4877C38.7504 17.5349 43.7985 9.83972 46.5 9.83972M46.5 9.83972C49.2015 9.83972 54.2496 17.5349 56.1484 19.4877M46.5 9.83972V40.7132M83.1638 52.2908H64.1526C60.9031 52.2908 58.3521 55.0076 56.9164 57.875C55.3611 60.9932 52.2466 63.8683 46.5 63.8683C40.7534 63.8683 37.6389 60.9932 36.0798 57.875C34.6518 55.0076 32.0969 52.2908 28.8474 52.2908H9.83621" stroke="#FE671E" stroke-width="5" stroke-linecap="round" stroke-linejoin="round"/>
</svg>
